<?xml version="1.0" standalone="no"?>
<!DOCTYPE svg PUBLIC "-//W3C//DTD SVG 20010904//EN"
 "http://www.w3.org/TR/2001/REC-SVG-20010904/DTD/svg10.dtd">
<svg version="1.0" xmlns="http://www.w3.org/2000/svg"
 width="1024.000000pt" height="1024.000000pt" viewBox="0 0 1024.000000 1024.000000"
 preserveAspectRatio="xMidYMid meet">
<metadata>
Created by potrace 1.11, written by Peter Selinger 2001-2013
</metadata>
<g transform="translate(0.000000,1024.000000) scale(0.100000,-0.100000)"
fill="#000000" stroke="none">
<path d="M0 5120 l0 -5120 5120 0 5120 0 0 5120 0 5120 -5120 0 -5120 0 0
-5120z m3315 4950 c360 -27 647 -103 935 -251 183 -94 301 -180 451 -329 188
-188 302 -358 398 -600 249 -623 177 -1422 -182 -2032 -321 -545 -845 -887
-1417 -924 l-99 -7 42 -47 c23 -26 166 -182 317 -346 151 -165 520 -571 820
-904 1651 -1832 2505 -2714 3056 -3156 596 -478 1128 -733 1674 -805 108 -14
392 -17 493 -5 l68 8 -3 -59 -3 -58 -145 -32 c-1014 -227 -1933 -8 -2840 677
-410 310 -746 636 -1320 1285 -268 302 -482 540 -1475 1640 -457 506 -986
1093 -1176 1305 -379 422 -523 567 -636 640 -65 43 -166 90 -193 90 -6 0 -10
22 -10 49 l0 49 308 5 c299 5 464 18 667 53 734 126 1186 522 1329 1164 39
177 49 314 43 564 -6 225 -19 342 -57 521 -48 219 -145 454 -256 622 -151 227
-394 410 -639 482 -183 53 -186 53 -998 58 l-757 4 2 -3313 3 -3313 23 -70
c43 -127 90 -204 182 -296 71 -72 101 -93 180 -132 114 -56 211 -77 350 -77
l100 0 0 -55 0 -55 -1195 0 -1195 0 0 54 0 53 133 6 c195 8 302 44 440 148
105 80 184 191 234 334 l28 80 0 3150 0 3150 -28 80 c-78 222 -238 382 -452
452 -65 21 -106 27 -217 31 l-138 5 0 58 0 59 1508 0 c927 0 1561 -4 1647 -10z"/>
</g>
</svg>
