<?xml version="1.0" standalone="no"?>
<!DOCTYPE svg PUBLIC "-//W3C//DTD SVG 20010904//EN"
 "http://www.w3.org/TR/2001/REC-SVG-20010904/DTD/svg10.dtd">
<svg version="1.0" xmlns="http://www.w3.org/2000/svg"
 width="260.000000pt" height="260.000000pt" viewBox="0 0 260.000000 260.000000"
 preserveAspectRatio="xMidYMid meet">
<metadata>
Created by potrace 1.11, written by Peter Selinger 2001-2013
</metadata>
<g transform="translate(0.000000,260.000000) scale(0.100000,-0.100000)"
fill="#000000" stroke="none">
<path d="M1290 2394 c-8 -1 -32 -5 -52 -9 -28 -4 -37 -11 -40 -28 -3 -20 -8
-22 -90 -22 -61 0 -91 -4 -105 -15 -10 -8 -34 -24 -53 -34 -88 -47 -201 -191
-259 -331 -22 -52 -36 -107 -43 -169 -10 -91 -10 -92 21 -166 38 -88 48 -101
62 -80 8 12 9 10 4 -7 -11 -41 22 -25 49 22 10 17 14 21 10 10 -3 -11 -9 -30
-11 -42 -3 -13 -9 -23 -14 -23 -5 0 -9 -10 -9 -22 -1 -13 -10 -34 -21 -47 -17
-21 -22 -22 -30 -10 -6 9 -9 -3 -9 -38 0 -39 8 -67 34 -117 19 -37 44 -91 55
-121 29 -78 41 -93 64 -87 18 5 19 2 13 -28 -3 -19 -13 -41 -21 -50 -21 -23
-19 -53 5 -83 16 -19 18 -31 11 -49 -5 -14 -11 -40 -13 -58 -3 -29 2 -37 31
-57 61 -41 71 -34 71 52 l0 75 44 0 44 0 16 -77 c9 -43 18 -85 20 -95 8 -37
-109 -121 -230 -166 -80 -30 -114 -46 -114 -56 0 -4 9 -6 20 -3 11 3 18 1 14
-4 -3 -5 0 -9 6 -9 7 0 10 -6 7 -12 -2 -7 -11 -12 -20 -10 -11 2 -15 -2 -11
-13 3 -8 1 -15 -5 -15 -6 0 -11 7 -11 16 0 8 -4 13 -10 9 -5 -3 -7 -12 -4 -19
11 -29 -25 -25 -43 4 -19 33 -34 37 -56 16 -8 -8 -43 -20 -78 -26 -67 -12
-110 -29 -76 -30 9 0 17 -5 17 -11 0 -5 5 -7 11 -3 12 7 61 -15 54 -25 -3 -6
3 -8 56 -13 l21 -2 -21 -17 c-12 -10 -21 -22 -21 -27 0 -17 -36 -20 -69 -6
-27 11 -33 11 -37 -1 -4 -8 -13 -15 -21 -15 -12 0 -12 -3 2 -16 13 -14 14 -19
3 -25 -7 -5 -9 -9 -4 -9 5 0 2 -7 -5 -16 -7 -9 -15 -25 -16 -37 -2 -12 -7 -24
-11 -27 -10 -7 -32 -42 -38 -61 -3 -9 -17 -22 -30 -29 -13 -8 -24 -17 -24 -22
0 -4 511 -8 1135 -8 l1135 0 0 108 c0 102 -2 111 -29 153 -58 92 -183 161
-295 163 -43 1 -76 6 -85 14 -7 7 -20 11 -27 8 -19 -7 -217 82 -289 129 -97
65 -140 144 -169 312 -9 48 -16 90 -16 93 0 4 15 4 33 2 28 -3 39 4 85 50 60
59 111 145 136 228 10 30 21 63 27 72 5 10 9 71 9 135 0 121 -2 129 -75 403
-58 217 -72 247 -142 307 -29 25 -50 50 -46 56 3 5 2 7 -4 4 -10 -6 -60 52
-55 65 1 4 -6 4 -15 1 -10 -4 -14 -2 -10 4 9 14 -15 23 -59 23 -19 0 -34 4
-34 9 0 5 -18 8 -41 7 -29 0 -43 4 -50 16 -5 10 -24 19 -42 22 -59 9 -102 13
-117 10z m-193 -520 c-3 -3 -12 -4 -19 -1 -8 3 -5 6 6 6 11 1 17 -2 13 -5z
m10 -187 c-6 -20 -27 -19 -27 2 0 14 5 19 15 14 9 -3 14 -10 12 -16z m-247
-24 c-11 -17 -11 -17 -6 0 3 10 6 24 7 30 0 9 2 9 5 0 3 -7 0 -20 -6 -30z
m-22 -25 c-2 -6 -14 -15 -26 -19 -18 -7 -22 -5 -22 11 0 15 7 20 26 20 15 0
24 -5 22 -12z m-98 -41 c0 -2 -9 -12 -20 -22 -19 -18 -20 -17 -20 3 0 15 6 22
20 22 11 0 20 -2 20 -3z m70 -91 c0 -3 -4 -8 -10 -11 -5 -3 -10 -1 -10 4 0 6
5 11 10 11 6 0 10 -2 10 -4z m-3 -150 c-3 -8 -1 -16 5 -18 6 -2 3 -9 -6 -17
-14 -12 -16 -10 -16 18 0 17 5 31 11 31 6 0 9 -6 6 -14z m137 -76 c29 0 11
-13 -21 -15 -16 -1 -43 -6 -62 -10 -26 -5 -32 -4 -29 6 5 16 45 29 73 23 11
-2 29 -4 39 -4z m661 -70 c3 -5 -3 -10 -15 -10 -12 0 -18 5 -15 10 3 6 10 10
15 10 5 0 12 -4 15 -10z m-665 -219 c0 -13 -28 -22 -35 -11 -3 4 1 11 7 13 20
8 28 8 28 -2z m-63 -507 c2 -13 1 -15 -4 -4 -3 8 -11 19 -17 23 -7 6 -6 7 4 4
8 -2 16 -12 17 -23z m-37 -9 c7 -8 8 -15 2 -15 -5 0 -15 7 -22 15 -7 8 -8 15
-2 15 5 0 15 -7 22 -15z m-35 -35 c3 -5 1 -10 -4 -10 -6 0 -11 5 -11 10 0 6 2
10 4 10 3 0 8 -4 11 -10z m-155 -291 l-11 -24 6 25 c2 14 6 54 7 90 l2 65 3
-66 c2 -36 -1 -76 -7 -90z"/>
</g>
</svg>
