<?xml version="1.0" encoding="utf-8"?>
<!-- Generator: Adobe Illustrator 16.0.0, SVG Export Plug-In . SVG Version: 6.00 Build 0)  -->
<!DOCTYPE svg PUBLIC "-//W3C//DTD SVG 1.1//EN" "http://www.w3.org/Graphics/SVG/1.1/DTD/svg11.dtd">
<svg version="1.1" id="Layer_1" xmlns="http://www.w3.org/2000/svg" xmlns:xlink="http://www.w3.org/1999/xlink" x="0px" y="0px"
	 width="895px" height="221px" viewBox="0 0 895 221" enable-background="new 0 0 895 221" xml:space="preserve">
<path id="R" fill="#FFFFFF" stroke="#FFFFFF" stroke-miterlimit="10" d="M0.66,1.375l0.039,2.475h3.071
	c8.495,0,15.389,6.812,15.549,15.27v134.708c-0.262,8.9-7.52,15.167-15.5,15.167H0.711l-0.039,2.428h53.026l-0.039-2.428h-2.995
	c-8.981,0-15.534-7.285-15.624-15.265V9.073h30.188c19.904,0.138,29.37,16.408,30.098,37.049c0.243,7.285-0.728,11.899-1.456,14.57
	c-6.068,22.341-27.45,24.425-37.866,25.255c-6.093,0.486-11.663,0.1-12.889,0.1v2.247c4.151,0.568,8.648,5.065,14.588,11.738
	c15.865,17.829,53.631,59.306,65.292,72.608c25.972,29.626,53.886,50.51,93.164,40.068v-2.428
	c-30.783,3.885-55.298-21.127-80.299-47.596c-27.428-28.897-42.72-47.11-63.52-69.303c23.469,0.095,41.189-22.003,41.189-47.987
	c0-26.469-18.69-44.014-47.332-44.014L0.66,1.375z"/>
<path id="O" fill="#FFFFFF" stroke="#FFFFFF" stroke-miterlimit="10" d="M220.095,43.957c-40.511,0-68.599,25.992-68.599,64.98
	s28.088,64.98,68.599,64.98c40.511,0,68.599-25.992,68.599-64.98S260.606,43.957,220.095,43.957z M220.095,168.576
	c-32.836,0-54.784-23.855-54.784-59.637c0-35.784,21.948-59.639,54.784-59.639s54.784,23.855,54.784,59.639
	C274.879,144.721,252.932,168.576,220.095,168.576z"/>
<path id="B" fill="#FFFFFF" stroke="#FFFFFF" stroke-miterlimit="10" d="M302.871,46.456l0.028,1.775h2.229
	c6.227-0.015,11.265,4.916,11.456,11.068v99.218c-0.179,6.164-5.221,11.109-11.427,11.109h-2.257l-0.028,1.785h43.476
	c26.589,0,41.578-13.389,41.578-33.55c0.016-17.684-11.583-31.608-30.577-34.438c10.073-2.883,19.708-11.987,19.776-27.126
	c-0.068-17.887-13.808-29.848-38.827-29.848L302.871,46.456z M328.219,164.9V52.182h9.432c16.919-0.02,26.02,9.263,26.088,25.401
	c-0.068,22.957-18.625,26.17-29.506,26.131l0.041,1.68c17.266-0.034,40.285,4.429,40.269,31.185
	c0.016,18.051-10.512,28.405-28.825,28.321H328.219z"/>
<path id="L" fill="#FFFFFF" stroke="#FFFFFF" stroke-miterlimit="10" d="M680.951,198.373
	c-40.101,15.298-63.809,12.142-162.922-22.341c-11.455-3.885-11.651-9.957-11.673-16.673V19.143
	c0.16-8.458,7.054-15.27,15.549-15.27h3.07l0.039-2.428H471.91l0.039,2.428h3.07c8.496,0,15.389,6.812,15.549,15.27v134.582
	c-0.211,8.708-7.25,15.265-15.503,15.265h-3.111l-0.039,2.429c13.908,0.243,28.115,5.342,42.791,11.899
	c48.587,21.612,102.325,61.923,167.458,16.999L680.951,198.373z"/>
<path id="A" fill="#FFFFFF" stroke="#FFFFFF" stroke-miterlimit="10" d="M618.814,43.957h-1.608c0,3.926-6.607,18.387-6.607,18.387
	l-40.466,96.062c-3.608,7.937-10.205,11.227-15.631,11.227h-1.606v1.785h35.916v-1.769h-1.568c-4.584,0-9.337-4.022-6.82-11.099
	l11.954-30.514h48.062l11.413,30.405c2.605,7.144-2.173,11.206-6.781,11.206h-1.568v1.769h40.181v-1.785h-1.492
	c-5.467,0-12.068-3.293-15.676-11.239L618.814,43.957z M594.476,122.681l22.445-57.295l21.507,57.295H594.476z"/>
<path id="K" fill="#FFFFFF" stroke="#FFFFFF" stroke-miterlimit="10" d="M717.752,59.342c0.175-6.166,5.219-11.115,11.427-11.115
	h2.257l0.028-1.785H692.43l0.029,1.785h2.257c6.22,0,11.272,4.968,11.427,11.152v99.03c-0.118,6.218-5.186,11.225-11.431,11.225
	h-2.257l-0.029,1.785h39.041l-0.029-1.785h-2.257c-6.246,0-11.313-5.007-11.429-11.225V59.342z M735.2,104.956l42.042-48.537
	c4.607-5.163,11.568-8.335,19.223-8.353h0.782v-1.61h-37.691v1.578h1.724c4.902,0,7.33,4.451,4.297,8.433l-42.086,52.794
	l42.948,52.02c8.196,9.566,21.866,10.097,26.887,10.113h7.545v-1.774c-7.254-0.184-11.974-2.403-16.855-7.287L735.2,104.956z"/>
<path id="E" fill="#FFFFFF" stroke="#FFFFFF" stroke-miterlimit="10" d="M892.245,142.58c-5.509,13.592-12.769,23.377-31.677,23.377
	h-25.591v-53.489h30.342c4.694,0.186,8.445,4.047,8.445,8.792v2.63l1.743,0.021V95.659l-1.743,0.023v2.63
	c0,4.805-3.851,8.704-8.631,8.793h-30.156v-55.19h36.378c5.575,0.339,9.991,4.962,9.991,10.625v3.181l1.803,0.027V51.414v-2.979
	v-5.227c-3.309,1.396-13.581,3.174-21.272,3.247h-52.145l0.029,1.774h2.257c5.906,0,11.366,4.479,11.366,10.226v99.957
	c-0.118,6.218-5.185,11.225-11.431,11.225h-2.257l-0.028,1.785h73.973l10.401-28.837L892.245,142.58z"/>
</svg>
